<svg xmlns="http://www.w3.org/2000/svg" viewBox="0 0 318 110"><path stroke="#fff" stroke-width="1.5" d="M150.13 81.13l4.87-4a11.93 11.93 0 0 0 11.1 6.37c6.87 0 10.28-4 10.28-10.09v-5a13.26 13.26 0 0 1-11 5.22c-9.22 0-16.38-7.22-16.38-16.72s7.16-16.63 16.31-16.63a13.34 13.34 0 0 1 11.1 5.25v-4.62h7V73c0 9.88-6.16 16.53-17.13 16.53-5.87.03-12-1.94-16.15-8.4zm26.65-24.22a10.44 10.44 0 1 0-10.47 10.5 10.39 10.39 0 0 0 10.47-10.5zM193.81 26h7v48h-7zm14.66 31.41c0-9.72 7.53-17.22 16.34-17.22a14.73 14.73 0 0 1 11.94 5.53v-4.81h6.94V74h-7v-4.81a14.73 14.73 0 0 1-11.94 5.47c-8.75 0-16.28-7.5-16.28-17.25zm28.75 0a10.91 10.91 0 1 0-10.87 11 10.73 10.73 0 0 0 10.87-11zm24.53 10.78h17.75V74h-29.12l17.9-27.28h-16.65v-5.81h28.06zm55.31-9.75h-27.71a10.65 10.65 0 0 0 10.81 10.37 10.8 10.8 0 0 0 9.34-5.12l5.66 2.4c-2.85 5.29-8.31 8.54-15 8.54-10.19 0-17.56-7.63-17.56-17.19A17.09 17.09 0 0 1 300 40.25a16.74 16.74 0 0 1 17.1 16.81zm-27.31-4.75H310a9.76 9.76 0 0 0-9.91-7.91 10.38 10.38 0 0 0-10.34 7.91z" opacity=".8"/><path fill="#373a36" d="M150.13 81.13l4.87-4a11.93 11.93 0 0 0 11.1 6.37c6.87 0 10.28-4 10.28-10.09v-5a13.26 13.26 0 0 1-11 5.22c-9.22 0-16.38-7.22-16.38-16.72s7.16-16.63 16.31-16.63a13.34 13.34 0 0 1 11.1 5.25v-4.62h7V73c0 9.88-6.16 16.53-17.13 16.53-5.87.03-12-1.94-16.15-8.4zm26.65-24.22a10.44 10.44 0 1 0-10.47 10.5 10.39 10.39 0 0 0 10.47-10.5zM193.81 26h7v48h-7zm14.66 31.41c0-9.72 7.53-17.22 16.34-17.22a14.73 14.73 0 0 1 11.94 5.53v-4.81h6.94V74h-7v-4.81a14.73 14.73 0 0 1-11.94 5.47c-8.75 0-16.28-7.5-16.28-17.25zm28.75 0a10.91 10.91 0 1 0-10.87 11 10.73 10.73 0 0 0 10.87-11zm24.53 10.78h17.75V74h-29.12l17.9-27.28h-16.65v-5.81h28.06zm55.31-9.75h-27.71a10.65 10.65 0 0 0 10.81 10.37 10.8 10.8 0 0 0 9.34-5.12l5.66 2.4c-2.85 5.29-8.31 8.54-15 8.54-10.19 0-17.56-7.63-17.56-17.19A17.09 17.09 0 0 1 300 40.25a16.74 16.74 0 0 1 17.1 16.81zm-27.31-4.75H310a9.76 9.76 0 0 0-9.91-7.91 10.38 10.38 0 0 0-10.34 7.91z"/><path fill="#ffac33" d="M120.75 67.83C117.13 89.55 94 104 61 104S4.87 89.55 1.25 67.83c-.86-5.13.54-28.14 3.65-32.6 8.87-12.69 12 35.92 56.1 35.92 48 0 47.26-48.61 56.13-35.92 3.11 4.46 4.47 27.47 3.62 32.6z"/><path fill="#8a4b38" d="M119.54 42.48C119.54 22.88 93.32 7 61 7S2.45 22.88 2.45 42.48c0 .54.1 1.07.14 1.61-.53 6.14.17 14.34 3.34 19.06 7.39 11 11 5.43 16.44 7.09 8.1 2.48 8.69 8.87 15.09 12.07 7.24 3.62 11.46 2.57 21.73 0 14.48-3.62 23.69 3.77 32.59 0 7.3-3.09 11.47-14.33 15.54-15.69 8-2.67 12.1-11.53 11.75-19.87a21.73 21.73 0 0 0 .47-4.27zm-58.54 0c11 0 19.91 2.43 19.91 5.43S72 53.34 61 53.34s-19.92-2.43-19.92-5.43S50 42.48 61 42.48z"/><path fill="#f4900c" d="M61 34.33c-13 0-23.54 4.25-23.54 9.5 0 2 1.6 3.93 4.31 5.48a2.1 2.1 0 0 1-.69-1.4c0-3 8.92-5.43 19.92-5.43s19.91 2.43 19.91 5.43a2.06 2.06 0 0 1-.69 1.4c2.71-1.55 4.31-3.44 4.31-5.48.01-5.25-10.53-9.5-23.53-9.5z"/><path fill="#f4abba" d="M13.62 49.12a3.62 3.62 0 0 1-1.69-6.82l8-4.23a3.62 3.62 0 1 1 3.39 6.4l-8 4.23a3.67 3.67 0 0 1-1.7.42zm41.19 27a3.62 3.62 0 0 1-3.35-2.23L48.9 67.7a3.62 3.62 0 0 1 6.69-2.77l2.56 6.19a3.61 3.61 0 0 1-2 4.73 3.53 3.53 0 0 1-1.34.27zm47.08-41.38a3.74 3.74 0 0 1-3.62-3.63 3.69 3.69 0 0 1 3.49-3.81l4.22-.18a3.62 3.62 0 0 1 3.75 3.48 3.72 3.72 0 0 1-3.49 3.86l-4.22.28zm-35-14.29a3.62 3.62 0 0 1-1.1-7.08l2.86-.9a3.62 3.62 0 0 1 2.19 6.91l-2.86.9a3.49 3.49 0 0 1-1.09.17z"/><path fill="#88c9f9" d="M46.81 26.33A3.56 3.56 0 0 1 45.2 26l-2.72-1.36a3.62 3.62 0 0 1 3.23-6.48l2.72 1.36a3.62 3.62 0 0 1-1.62 6.86zm31.54 46a3.59 3.59 0 0 1-1.61-.33L74 70.62a3.62 3.62 0 1 1 3.23-6.49L80 65.49a3.62 3.62 0 0 1-1.61 6.86z"/><path fill="#55acee" d="M95.85 61.64a3.53 3.53 0 0 1-1.85-.51 3.61 3.61 0 0 1-1.27-5l3.92-6.64a3.62 3.62 0 1 1 6.24 3.68L99 59.86a3.62 3.62 0 0 1-3.15 1.78zM31 64.36a3.47 3.47 0 0 1-1.43-.3 3.61 3.61 0 0 1-1.9-4.75L29 56.14A3.62 3.62 0 1 1 35.66 59l-1.36 3.16a3.64 3.64 0 0 1-3.3 2.2zm54-34.25a3.63 3.63 0 0 1-1.45-6.95L86 22.11a3.62 3.62 0 1 1 2.9 6.63l-2.46 1.06a3.54 3.54 0 0 1-1.44.31zM26.15 30a3.83 3.83 0 0 1-.82-.1l-2-.45a3.62 3.62 0 0 1 1.67-7.1l2 .45a3.63 3.63 0 0 1-.85 7.2z"/></svg>